<svg width="1440" height="229" viewBox="0 0 1440 229" fill="none" xmlns="http://www.w3.org/2000/svg">
<path d="M0 227.179L34.3 189.316C68.6 151.453 137 75.7263 206 37.8631C274.3 0 343 3.8147e-06 411 44.1342C480 88.7417 549 176.3 617 176.655C685.7 176.3 754 88.7417 823 63.0658C891.4 37.8631 960 75.7263 1029 100.929C1097.1 126.605 1166 138.437 1234 119.86C1302.9 100.574 1371 50.8786 1406 25.2026L1440 0V340.768H1405.7C1371.4 340.768 1303 340.768 1234 340.768C1165.7 340.768 1097 340.768 1029 340.768C960 340.768 891 340.768 823 340.768C754.3 340.768 686 340.768 617 340.768C548.6 340.768 480 340.768 411 340.768C342.9 340.768 274 340.768 206 340.768C137.1 340.768 69 340.768 34 340.768H0V227.179Z" fill="#4A0880"/>
</svg>
